<svg id="Layer_1" data-name="Layer 1" xmlns="http://www.w3.org/2000/svg" viewBox="0 0 48 48"><defs><style>.cls-1{fill:#687d94;}.cls-2{fill:#edebf2;}.cls-3{fill:#fff;}.cls-4{fill:#c6c3d8;}.cls-5{fill:#72aaed;}.cls-6{fill:#a9a5c4;}.cls-7{fill:#f26674;}.cls-8{fill:#b5e08c;}.cls-9{fill:#2c435e;}</style></defs><title>checklist, medical, healthcare, pen, clipboard, clipchart</title><rect class="cls-1" x="0.5" y="2.46" width="35.25" height="45.04" rx="1.96"/><rect class="cls-2" x="3.44" y="5.4" width="29.38" height="39.17"/><circle class="cls-3" cx="18.13" cy="16.17" r="5.88"/><path class="cls-4" d="M10.29,1.48V7.35a1,1,0,0,0,1,1H25a1,1,0,0,0,1-1V1.48a1,1,0,0,0-1-1H11.27A1,1,0,0,0,10.29,1.48ZM24,6.37H12.25V2.46H24Z"/><rect class="cls-5" x="7.35" y="24.98" width="5.88" height="5.88"/><rect class="cls-5" x="7.35" y="33.79" width="5.88" height="5.88"/><rect class="cls-6" x="16.17" y="24.98" width="12.73" height="1.96"/><rect class="cls-6" x="16.17" y="28.9" width="12.73" height="1.96"/><rect class="cls-6" x="16.17" y="33.79" width="12.73" height="1.96"/><rect class="cls-6" x="16.17" y="37.71" width="12.73" height="1.96"/><rect class="cls-7" x="14.21" y="15.19" width="7.83" height="1.96"/><rect class="cls-7" x="14.21" y="15.19" width="7.83" height="1.96" transform="translate(34.29 -1.96) rotate(90)"/><rect class="cls-8" x="9.31" y="26.94" width="1.96" height="3.92" transform="translate(-17.42 15.74) rotate(-45)"/><rect class="cls-8" x="9.44" y="27.24" width="5.83" height="1.96" transform="translate(-16.34 17) rotate(-45)"/><rect class="cls-8" x="9.31" y="35.75" width="1.96" height="3.92" transform="translate(-23.65 18.32) rotate(-45)"/><rect class="cls-8" x="9.44" y="36.05" width="5.83" height="1.96" transform="translate(-22.57 19.58) rotate(-45)"/><path class="cls-9" d="M44.28,10.58l1.26,1.26,2,2v7.26a1,1,0,0,1-1,1h0a1,1,0,0,1-1-1V14.62L42.89,12Z"/><path class="cls-5" d="M38.69,35.75l2,4.9h2l2-4.9V11.27a1,1,0,0,0-1-1H39.67a1,1,0,0,0-1,1Z"/><path class="cls-1" d="M40.65,40.65h2a0,0,0,0,1,0,0v1a1,1,0,0,1-1,1h0a1,1,0,0,1-1-1v-1a0,0,0,0,1,0,0Z"/><path class="cls-9" d="M39.67,4.42h3.92a0,0,0,0,1,0,0V8.33a2,2,0,0,1-2,2h0a2,2,0,0,1-2-2V4.42a0,0,0,0,1,0,0Z" transform="translate(83.25 14.71) rotate(-180)"/></svg>